<svg xmlns="http://www.w3.org/2000/svg" viewBox="0 0 40 40">
  <defs>
    <linearGradient id="bg" x1="0" y1="0" x2="40" y2="40" gradientUnits="userSpaceOnUse">
      <stop offset="0" stop-color="#4c78d9"/>
      <stop offset="1" stop-color="#385bc1"/>
    </linearGradient>
  </defs>
  <rect width="40" height="40" rx="8" fill="url(#bg)"/>
  <path d="M20 6C14.5 12.5 11 17 11 22a9 9 0 0 0 18 0c0-5-3.5-9.5-9-16z" fill="#ffffff"/>
  <path d="M15.5 22c0-2 .8-3.8 2.1-5.2.8 1.8 2.1 3.1 3.7 3.6 1.6-.5 2.9-1.8 3.7-3.6 1.3 1.4 2.1 3.2 2.1 5.2A4.5 4.5 0 0 1 20 26.5 4.5 4.5 0 0 1 15.5 22z" fill="#385bc1" opacity="0.18"/>
</svg>
